<svg xmlns="http://www.w3.org/2000/svg" viewBox="0 0 128 128">
  <rect width="128" height="128" rx="20" fill="#1e1e2e"/>
  <!-- v5: Warm gray pencil sketch look -->
  <path d="M18,108 L18,16 L48,16 L64,52 L82,16 L108,16 L108,52 L116,52 L86,108 L92,80 L80,80 L100,44 L100,24 L86,24 L64,58 L48,24 L36,24 L36,108 Z"
        fill="none" stroke="#c8bca8" stroke-width="3" stroke-linejoin="round"/>
  <!-- Left leg fill warm -->
  <path d="M20,106 L20,18 L34,24 L34,106 Z" fill="#a09080" opacity="0.6"/>
  <!-- Warm shading lines -->
  <line x1="22" y1="26" x2="32" y2="30" stroke="#8a7a6a" stroke-width="1.5"/>
  <line x1="22" y1="38" x2="32" y2="42" stroke="#8a7a6a" stroke-width="1.5"/>
  <line x1="22" y1="50" x2="32" y2="54" stroke="#8a7a6a" stroke-width="1.5"/>
  <line x1="22" y1="62" x2="32" y2="66" stroke="#8a7a6a" stroke-width="1.5"/>
  <line x1="22" y1="74" x2="32" y2="78" stroke="#8a7a6a" stroke-width="1.5"/>
  <line x1="22" y1="86" x2="32" y2="90" stroke="#8a7a6a" stroke-width="1.5"/>
  <line x1="22" y1="98" x2="32" y2="102" stroke="#8a7a6a" stroke-width="1.5"/>
</svg>
