<svg xmlns="http://www.w3.org/2000/svg" viewBox="0 0 128 128">
  <rect width="128" height="128" rx="20" fill="#1e1e2e"/>
  <!-- v8: With orange highlight stripe behind (marker feel) -->
  <!-- Marker highlight -->
  <rect x="12" y="44" width="104" height="22" rx="4" fill="#ff6b35" opacity="0.4"
        transform="rotate(-3 64 55)"/>
  <!-- M-bolt outline -->
  <path d="M18,108 L18,16 L48,16 L64,52 L82,16 L108,16 L108,52 L116,52 L86,108 L92,80 L80,80 L100,44 L100,24 L86,24 L64,58 L48,24 L36,24 L36,108 Z"
        fill="none" stroke="#e8e8e8" stroke-width="2.5" stroke-linejoin="round"/>
  <!-- Left leg fill -->
  <path d="M20,106 L20,18 L34,24 L34,106 Z" fill="#c0c0c0" opacity="0.6"/>
  <!-- Shading -->
  <line x1="22" y1="28" x2="32" y2="32" stroke="#888" stroke-width="1.5"/>
  <line x1="22" y1="40" x2="32" y2="44" stroke="#888" stroke-width="1.5"/>
  <line x1="22" y1="52" x2="32" y2="56" stroke="#888" stroke-width="1.5"/>
  <line x1="22" y1="64" x2="32" y2="68" stroke="#888" stroke-width="1.5"/>
  <line x1="22" y1="76" x2="32" y2="80" stroke="#888" stroke-width="1.5"/>
  <line x1="22" y1="88" x2="32" y2="92" stroke="#888" stroke-width="1.5"/>
  <line x1="22" y1="100" x2="32" y2="104" stroke="#888" stroke-width="1.5"/>
</svg>
