<svg xmlns="http://www.w3.org/2000/svg" viewBox="0 0 128 128">
  <rect width="128" height="128" rx="20" fill="#1e1e2e"/>
  <!-- v1: Faithful trace - M-bolt as one shape, outlined block letter -->
  <!-- Outer contour: M top reads as letter, right side flows into downward arrow -->
  <path d="M18,108 L18,16 L48,16 L64,52 L82,16 L108,16 L108,52 L116,52 L86,108 L92,80 L80,80 L100,44 L100,24 L86,24 L64,58 L48,24 L36,24 L36,108 Z"
        fill="none" stroke="#d8d8d8" stroke-width="2.5" stroke-linejoin="round"/>
  <!-- Left leg shaded fill -->
  <path d="M20,106 L20,18 L34,24 L34,106 Z" fill="#a0a0a0" opacity="0.65"/>
  <!-- Diagonal shading lines in left leg -->
  <line x1="22" y1="26" x2="32" y2="30" stroke="#787878" stroke-width="1.5"/>
  <line x1="22" y1="36" x2="32" y2="40" stroke="#787878" stroke-width="1.5"/>
  <line x1="22" y1="46" x2="32" y2="50" stroke="#787878" stroke-width="1.5"/>
  <line x1="22" y1="56" x2="32" y2="60" stroke="#787878" stroke-width="1.5"/>
  <line x1="22" y1="66" x2="32" y2="70" stroke="#787878" stroke-width="1.5"/>
  <line x1="22" y1="76" x2="32" y2="80" stroke="#787878" stroke-width="1.5"/>
  <line x1="22" y1="86" x2="32" y2="90" stroke="#787878" stroke-width="1.5"/>
  <line x1="22" y1="96" x2="32" y2="100" stroke="#787878" stroke-width="1.5"/>
</svg>
